# xmcd CD database file
# Copyright (C) 1993-1996 Ti Kan
#
# Track frame offsets:
#	182
#	11867
#	23097
#	34257
#	45240
#	57805
#	70162
#	83652
#	96882
#	110515
#	122310
#	133272
#	145672
#	157462
#	170022
#	181195
#	194150
#	206132
#	218130
#	229587
#	242137
#	254547
#	267340
#	279877
#
# Disc length: 3893 seconds
#
# Revision: 1
# Processed by: cddbd v1.4b41PL1 Copyright (c) Steve Scherf et al.
# Submitted via: CDValet v3.01 - Copyright (c) 1997 Greg Leichner
#
DISCID=5f0f3318
DTITLE=Hank Williams, Sr. - 24 Greatest Hits Vol. 2
DYEAR=1900
DGENRE=
TTITLE0=My Bucket's Got a Hole in It
TTITLE1=Crazy Heart
TTITLE2=I'll Never Get Out of this World Alive
TTITLE3=Moanin' the Blues
TTITLE4=I Could Never Be Ashamed of You
TTITLE5=Lost Highway
TTITLE6=You're Gonna Change (Or I'm Gonna Leave)
TTITLE7=A House Without Love
TTITLE8=I'd Still Want You
TTITLE9=Dear John
TTITLE10=Let's Turn Back the Years
TTITLE11=Howlin' at the Moon
TTITLE12=A Mansion on the Hill
TTITLE13=I Saw the Light
TTITLE14=(I Heard that) Lonesome Whistle
TTITLE15=I'm a Long Gone Daddy
TTITLE16=Why Should We Try Anymore
TTITLE17=Long Gone Lonesome Blues
TTITLE18=Nobody's Lonesome for Me
TTITLE19=They'll Never Take Her Love From Me
TTITLE20=My Sweet Love Ain't Around
TTITLE21=I Just Don't Like this Kind of Livin'
TTITLE22=I Won't Be Home No More
TTITLE23=I'm Sorry for You My Friend
EXTD=
EXTT0=
EXTT1=
EXTT2=
EXTT3=
EXTT4=
EXTT5=
EXTT6=
EXTT7=
EXTT8=
EXTT9=
EXTT10=
EXTT11=
EXTT12=
EXTT13=
EXTT14=
EXTT15=
EXTT16=
EXTT17=
EXTT18=
EXTT19=
EXTT20=
EXTT21=
EXTT22=
EXTT23=
PLAYORDER=
